<svg xmlns="http://www.w3.org/2000/svg" width="492" height="492" viewBox="0 0 492 492"><g transform="translate(-10 -10)"><path d="M502,50V462a40,40,0,0,1-40,40H50a40,40,0,0,1-40-40V50A40,40,0,0,1,50,10H462A40,40,0,0,1,502,50Zm0,0" fill="none"/><path d="M416,156V396a40,40,0,0,1-40,40H296V336h50l10-60H296V246a10,10,0,0,1,10-10h50V176H296a60,60,0,0,0-60,60v40H196v60h40V436H136a40,40,0,0,1-40-40V156a40,40,0,0,1,40-40H376A40,40,0,0,1,416,156Zm0,0" transform="translate(0 -20)" fill="currentColor"/></g></svg>