<svg xmlns="http://www.w3.org/2000/svg" width="492" height="492" viewBox="0 0 492 492"><g transform="translate(-10 -10)"><path d="M502,50V462a40,40,0,0,1-40,40H50a40,40,0,0,1-40-40V50A40,40,0,0,1,50,10H462A40,40,0,0,1,502,50Zm0,0" fill="none"/><path d="M613.25,298.883c-44.093,0-82.307,35.274-82.307,82.307,0,44.093,35.274,82.307,82.307,82.307,44.093,0,82.307-35.274,82.307-82.307C695.557,337.1,660.283,298.883,613.25,298.883Zm0,132.279a52.912,52.912,0,1,1,52.912-52.912A52.692,52.692,0,0,1,613.25,431.162ZM716.134,293c0,11.758-8.819,17.637-17.637,17.637-11.758,0-17.637-8.819-17.637-17.637,0-11.758,8.819-17.637,17.637-17.637C710.255,275.366,716.134,284.185,716.134,293Zm52.912,20.577c0-26.456-5.879-47.033-26.456-64.67-17.637-17.637-41.153-23.516-64.67-26.456-26.456-2.94-102.884-2.94-129.34,0-26.456,0-47.032,5.879-64.67,26.456-17.637,17.637-23.516,41.154-26.456,64.67-2.939,26.456-2.939,102.884,0,129.34,0,26.456,5.879,47.033,26.456,64.67,17.637,17.637,41.153,23.516,64.67,26.456,26.456,2.94,102.884,2.94,129.34,0,26.456,0,47.032-5.879,64.67-26.456,17.637-17.637,23.516-41.154,26.456-64.67,2.94-26.456,2.94-102.884,0-129.34ZM736.71,472.315c-5.879,14.7-14.7,23.516-29.4,29.4-20.577,8.819-70.549,5.879-94.065,5.879s-73.488,2.94-94.065-5.879c-14.7-5.879-23.516-14.7-29.4-29.4-8.819-20.577-5.879-70.549-5.879-94.065s-2.94-73.488,5.879-94.065c5.879-14.7,14.7-23.516,29.4-29.4,20.577-8.819,70.549-5.879,94.065-5.879s73.488-2.94,94.065,5.879c14.7,5.879,23.516,14.7,29.4,29.4,8.819,20.577,5.879,70.549,5.879,94.065S745.529,451.738,736.71,472.315Z" transform="translate(-357 -122)" fill-rule="evenodd" fill="currentColor"/></g></svg>