<svg xmlns="http://www.w3.org/2000/svg" width="492" height="492" viewBox="0 0 492 492"><g transform="translate(-1514 -3957)"><g transform="translate(1623.25 3022.25)"><path d="M492.423,245.4c0,39.1,1.307,93.838-5.227,131.634-14.375,84.715-64.032,108.175-142.438,112.085-31.363,2.607-69.259,1.3-100.622,1.3-39.2,0-95.394,1.3-133.291-6.517C28.519,469.571,6.3,418.742,2.383,341.847c-2.614-31.28-1.307-69.076-1.307-100.355,0-39.1-1.307-95.142,5.227-132.938C20.678,26.445,71.642,4.289,148.742.379,180.1-2.227,218-.924,249.364-.924c39.2,0,95.394-1.3,133.291,5.213C464.981,18.625,487.2,69.455,491.117,146.35c2.614,29.976,1.307,66.469,1.307,97.748Z" transform="translate(-110 936)" fill="#45668e" fill-rule="evenodd"/></g><path d="M330.076,108.84c2.189-7.4,0-12.84-10.532-12.84H284.692c-8.876,0-12.958,4.674-15.148,9.882,0,0-17.751,43.254-42.84,71.3-8.106,8.106-11.834,10.71-16.272,10.71-2.189,0-5.562-2.6-5.562-10V108.84c0-8.876-2.485-12.84-9.822-12.84H140.255c-5.562,0-8.876,4.142-8.876,7.988,0,8.4,12.544,10.355,13.846,34.023v51.36c0,11.242-2.012,13.313-6.45,13.313-11.834,0-40.591-43.431-57.632-93.135C77.712,99.905,74.339,96,65.4,96H30.553c-9.941,0-11.953,4.675-11.953,9.882,0,9.231,11.834,55.088,55.088,115.679,28.816,41.36,69.407,63.786,106.33,63.786,22.189,0,24.911-4.97,24.911-13.55,0-39.526-2.012-43.254,9.112-43.254,5.148,0,14.024,2.6,34.733,22.544,23.668,23.668,27.574,34.26,40.828,34.26h34.852c9.941,0,14.97-4.97,12.071-14.793-6.627-20.651-51.42-63.135-53.431-65.976-5.148-6.627-3.669-9.586,0-15.5.059-.059,42.6-59.94,46.982-80.236Z" transform="translate(1582.4 4012)" fill="#fff"/></g></svg>