<svg xmlns="http://www.w3.org/2000/svg" width="492" height="496" viewBox="0 0 492 496"><g transform="translate(-1918 -5505)"><g transform="translate(1917.25 5506.25)"><path d="M492.423,245.4c0,39.1,1.307,93.838-5.227,131.634-14.375,84.715-64.032,108.175-142.438,112.085-31.363,2.607-69.259,1.3-100.622,1.3-39.2,0-95.394,1.3-133.291-6.517C28.519,469.571,6.3,418.742,2.383,341.847c-2.614-31.28-1.307-69.076-1.307-100.355,0-39.1-1.307-95.142,5.227-132.938C20.678,26.445,71.642,4.289,148.742.379,180.1-2.227,218-.924,249.364-.924c39.2,0,95.394-1.3,133.291,5.213C464.981,18.625,487.2,69.455,491.117,146.35c2.614,29.976,1.307,66.469,1.307,97.748Z" transform="translate(0 0)" fill="#222" fill-rule="evenodd"/></g><path d="M462,10H50A40,40,0,0,0,10,50V462a40,40,0,0,0,40,40H462a40,40,0,0,0,40-40V50A40,40,0,0,0,462,10Zm0,0" transform="translate(1908 5499)" fill="none"/><path d="M254,116c87.267,0,158,71.629,158,160,0,72.66-47.824,134.012-113.346,153.52A20.12,20.12,0,0,1,293.5,416V376.18c.031-18.309-7.129-23.141-12.355-31.219,82.568-12.48,85.164-89.359,56.33-123.941a2.668,2.668,0,0,1-.663-2.07c4.424-13.539,3.854-43.359-6.268-42.891-13.867.652-24.927,8.563-37.8,16.313a3.357,3.357,0,0,1-2.893.5A141.519,141.519,0,0,0,254,187.712a141.518,141.518,0,0,0-35.855,5.16,3.357,3.357,0,0,1-2.893-.5c-12.868-7.75-23.928-15.66-37.8-16.312-10.122-.469-10.693,29.352-6.268,42.891a2.668,2.668,0,0,1-.663,2.07c-28.834,34.582-26.238,111.461,56.33,123.941-5.227,8.078-12.386,12.91-12.355,31.219V416a20.12,20.12,0,0,1-5.154,13.52C143.825,410.012,96,348.661,96,276c0-88.371,70.734-160,158-160Zm0,0" transform="translate(1910 5482)" fill="#fff"/></g></svg>