<svg xmlns="http://www.w3.org/2000/svg" width="492" height="492" viewBox="0 0 492 492"><g transform="translate(-1375 -4726)"><path d="M492.423,245.4c0,39.1,1.307,93.838-5.227,131.634-14.375,84.715-64.032,108.175-142.438,112.085-31.363,2.607-69.259,1.3-100.622,1.3-39.2,0-95.394,1.3-133.291-6.517C28.519,469.571,6.3,418.742,2.383,341.847c-2.614-31.28-1.307-69.076-1.307-100.355,0-39.1-1.307-95.142,5.227-132.938C20.678,26.445,71.642,4.289,148.742.379,180.1-2.227,218-.924,249.364-.924c39.2,0,95.394-1.3,133.291,5.213C464.981,18.625,487.2,69.455,491.117,146.35c2.614,29.976,1.307,66.469,1.307,97.748Z" transform="translate(1374.25 4727.25)" fill="#4267b2" fill-rule="evenodd"/><path d="M502,50V462a40,40,0,0,1-40,40H50a40,40,0,0,1-40-40V50A40,40,0,0,1,50,10H462A40,40,0,0,1,502,50Zm0,0" transform="translate(1365 4716)" fill="none"/><path d="M416,156V396a40,40,0,0,1-40,40H296V336h50l10-60H296V246a10,10,0,0,1,10-10h50V176H296a60,60,0,0,0-60,60v40H196v60h40V436H136a40,40,0,0,1-40-40V156a40,40,0,0,1,40-40H376A40,40,0,0,1,416,156Zm0,0" transform="translate(1365 4696)" fill="#fff"/></g></svg>