<svg xmlns="http://www.w3.org/2000/svg" width="492" height="492" viewBox="0 0 492 492"><g transform="translate(-3303 -5348)"><g transform="translate(3412.25 4413.25)"><path d="M492.423,245.4c0,39.1,1.307,93.838-5.227,131.634-14.375,84.715-64.032,108.175-142.438,112.085-31.363,2.607-69.259,1.3-100.622,1.3-39.2,0-95.394,1.3-133.291-6.517C28.519,469.571,6.3,418.742,2.383,341.847c-2.614-31.28-1.307-69.076-1.307-100.355,0-39.1-1.307-95.142,5.227-132.938C20.678,26.445,71.642,4.289,148.742.379,180.1-2.227,218-.924,249.364-.924c39.2,0,95.394-1.3,133.291,5.213C464.981,18.625,487.2,69.455,491.117,146.35c2.614,29.976,1.307,66.469,1.307,97.748Z" transform="translate(-110 936)" fill="#c13584" fill-rule="evenodd"/></g><path d="M613.25,298.883c-44.093,0-82.307,35.274-82.307,82.307,0,44.093,35.274,82.307,82.307,82.307,44.093,0,82.307-35.274,82.307-82.307C695.557,337.1,660.283,298.883,613.25,298.883Zm0,132.279a52.912,52.912,0,1,1,52.912-52.912A52.692,52.692,0,0,1,613.25,431.162ZM716.134,293c0,11.758-8.819,17.637-17.637,17.637-11.758,0-17.637-8.819-17.637-17.637,0-11.758,8.819-17.637,17.637-17.637C710.255,275.366,716.134,284.185,716.134,293Zm52.912,20.577c0-26.456-5.879-47.033-26.456-64.67-17.637-17.637-41.153-23.516-64.67-26.456-26.456-2.94-102.884-2.94-129.34,0-26.456,0-47.032,5.879-64.67,26.456-17.637,17.637-23.516,41.154-26.456,64.67-2.939,26.456-2.939,102.884,0,129.34,0,26.456,5.879,47.033,26.456,64.67,17.637,17.637,41.153,23.516,64.67,26.456,26.456,2.94,102.884,2.94,129.34,0,26.456,0,47.032-5.879,64.67-26.456,17.637-17.637,23.516-41.154,26.456-64.67,2.94-26.456,2.94-102.884,0-129.34ZM736.71,472.315c-5.879,14.7-14.7,23.516-29.4,29.4-20.577,8.819-70.549,5.879-94.065,5.879s-73.488,2.94-94.065-5.879c-14.7-5.879-23.516-14.7-29.4-29.4-8.819-20.577-5.879-70.549-5.879-94.065s-2.94-73.488,5.879-94.065c5.879-14.7,14.7-23.516,29.4-29.4,20.577-8.819,70.549-5.879,94.065-5.879s73.488-2.94,94.065,5.879c14.7,5.879,23.516,14.7,29.4,29.4,8.819,20.577,5.879,70.549,5.879,94.065S745.529,451.738,736.71,472.315Z" transform="translate(2935 5216)" fill="#fff" fill-rule="evenodd"/></g></svg>