<svg xmlns="http://www.w3.org/2000/svg" width="492" height="492" viewBox="0 0 492 492"><g transform="translate(-2059 -4495)"><g transform="translate(2168.25 3560.25)"><path d="M492.423,245.4c0,39.1,1.307,93.838-5.227,131.634-14.375,84.715-64.032,108.175-142.438,112.085-31.363,2.607-69.259,1.3-100.622,1.3-39.2,0-95.394,1.3-133.291-6.517C28.519,469.571,6.3,418.742,2.383,341.847c-2.614-31.28-1.307-69.076-1.307-100.355,0-39.1-1.307-95.142,5.227-132.938C20.678,26.445,71.642,4.289,148.742.379,180.1-2.227,218-.924,249.364-.924c39.2,0,95.394-1.3,133.291,5.213C464.981,18.625,487.2,69.455,491.117,146.35c2.614,29.976,1.307,66.469,1.307,97.748Z" transform="translate(-110 936)" fill="#08c" fill-rule="evenodd"/></g><g transform="translate(-1193 12)"><path d="M401,151,167.57,289.922,106,266Zm0,0" transform="translate(3245 4451)" fill="#fff"/><path d="M226,310.621,206,386l50.859-50.859L346,406l55-255Zm0,0" transform="translate(3245 4451)" fill="#fff"/></g></g></svg>