<svg xmlns="http://www.w3.org/2000/svg" width="492" height="492" viewBox="0 0 492 492"><g transform="translate(-1059 -4529)"><g transform="translate(1168.25 3594.25)"><path d="M492.423,245.4c0,39.1,1.307,93.838-5.227,131.634-14.375,84.715-64.032,108.175-142.438,112.085-31.363,2.607-69.259,1.3-100.622,1.3-39.2,0-95.394,1.3-133.291-6.517C28.519,469.571,6.3,418.742,2.383,341.847c-2.614-31.28-1.307-69.076-1.307-100.355,0-39.1-1.307-95.142,5.227-132.938C20.678,26.445,71.642,4.289,148.742.379,180.1-2.227,218-.924,249.364-.924c39.2,0,95.394-1.3,133.291,5.213C464.981,18.625,487.2,69.455,491.117,146.35c2.614,29.976,1.307,66.469,1.307,97.748Z" transform="translate(-110 936)" fill="#1f962d" fill-rule="evenodd"/></g><path d="M411.5,34.991c89.72,0,158.5,68.785,158.5,158.5a160.824,160.824,0,0,1-161.5,161.5c-29.906,0-59.813-8.972-86.729-23.925L250,354.991l23.925-71.776C255.981,256.3,250,226.393,250,196.486a160.824,160.824,0,0,1,161.5-161.5Zm95.7,206.355c2.991,2.991,2.991,5.981,2.991,8.972s0,5.981-2.991,8.972l-8.972,8.972c-17.944,17.944-83.738,11.963-128.6-32.9s-50.841-110.654-32.9-128.6l8.972-8.972c2.991-2.991,5.981-2.991,8.972-2.991s5.981,0,8.972,2.991l32.9,32.9c2.991,2.991,2.991,5.981,2.991,8.972s0,5.981-2.991,8.972l-8.972,8.972a21.682,21.682,0,0,0,0,29.907l32.9,32.9a21.682,21.682,0,0,0,29.907,0l8.972-8.972c2.991-2.991,5.981-2.991,8.972-2.991s5.981,0,8.972,2.991l32.9,32.9Z" transform="translate(895 4580)" fill="#fff" fill-rule="evenodd"/></g></svg>