<svg xmlns="http://www.w3.org/2000/svg" width="492" height="492" viewBox="0 0 492 492"><g transform="translate(-10 -10)"><path d="M502,50V462a40,40,0,0,1-40,40H50a40,40,0,0,1-40-40V50A40,40,0,0,1,50,10H462A40,40,0,0,1,502,50Zm0,0" fill="none"/><path d="M330.076,108.84c2.189-7.4,0-12.84-10.532-12.84H284.692c-8.876,0-12.958,4.674-15.148,9.882,0,0-17.751,43.254-42.84,71.3-8.106,8.106-11.834,10.71-16.272,10.71-2.189,0-5.562-2.6-5.562-10V108.84c0-8.876-2.485-12.84-9.822-12.84H140.255c-5.562,0-8.876,4.142-8.876,7.988,0,8.4,12.544,10.355,13.846,34.023v51.36c0,11.242-2.012,13.313-6.45,13.313-11.834,0-40.591-43.431-57.632-93.135C77.712,99.905,74.339,96,65.4,96H30.553c-9.941,0-11.953,4.675-11.953,9.882,0,9.231,11.834,55.088,55.088,115.679,28.816,41.36,69.407,63.786,106.33,63.786,22.189,0,24.911-4.97,24.911-13.55,0-39.526-2.012-43.254,9.112-43.254,5.148,0,14.024,2.6,34.733,22.544,23.668,23.668,27.574,34.26,40.828,34.26h34.852c9.941,0,14.97-4.97,12.071-14.793-6.627-20.651-51.42-63.135-53.431-65.976-5.148-6.627-3.669-9.586,0-15.5.059-.059,42.6-59.94,46.982-80.236Z" transform="translate(78.4 65)" fill="currentColor"/></g></svg>