<svg xmlns="http://www.w3.org/2000/svg" width="492" height="492" viewBox="0 0 492 492"><g transform="translate(-10 -10)"><path d="M502,50V462a40,40,0,0,1-40,40H50a40,40,0,0,1-40-40V50A40,40,0,0,1,50,10H462A40,40,0,0,1,502,50Zm0,0" fill="none"/><path d="M411.5,34.991c89.72,0,158.5,68.785,158.5,158.5a160.824,160.824,0,0,1-161.5,161.5c-29.906,0-59.813-8.972-86.729-23.925L250,354.991l23.925-71.776C255.981,256.3,250,226.393,250,196.486a160.824,160.824,0,0,1,161.5-161.5Zm95.7,206.355c2.991,2.991,2.991,5.981,2.991,8.972s0,5.981-2.991,8.972l-8.972,8.972c-17.944,17.944-83.738,11.963-128.6-32.9s-50.841-110.654-32.9-128.6l8.972-8.972c2.991-2.991,5.981-2.991,8.972-2.991s5.981,0,8.972,2.991l32.9,32.9c2.991,2.991,2.991,5.981,2.991,8.972s0,5.981-2.991,8.972l-8.972,8.972a21.682,21.682,0,0,0,0,29.907l32.9,32.9a21.682,21.682,0,0,0,29.907,0l8.972-8.972c2.991-2.991,5.981-2.991,8.972-2.991s5.981,0,8.972,2.991l32.9,32.9Z" transform="translate(-154 63)" fill-rule="evenodd" fill="currentColor"/></g></svg>