
<svg width="0" height="0" class="hidden">
  <symbol xmlns="http://www.w3.org/2000/svg" viewBox="0 0 492 492" id="facebook">
    <path d="M492 40v412a40 40 0 0 1-40 40H40a40 40 0 0 1-40-40V40A40 40 0 0 1 40 0h412a40 40 0 0 1 40 40zm0 0" fill="none"></path>
    <path d="M406 126v240a40 40 0 0 1-40 40h-80V306h50l10-60h-60v-30a10 10 0 0 1 10-10h50v-60h-60a60 60 0 0 0-60 60v40h-40v60h40v100H126a40 40 0 0 1-40-40V126a40 40 0 0 1 40-40h240a40 40 0 0 1 40 40zm0 0" fill="currentColor"></path>
  </symbol>
  <symbol xmlns="http://www.w3.org/2000/svg" viewBox="0 0 492 492" id="github">
    <path d="M452 0H40A40 40 0 0 0 0 40v412a40 40 0 0 0 40 40h412a40 40 0 0 0 40-40V40a40 40 0 0 0-40-40zm0 0" fill="none"></path>
    <path d="M244 86c87.267 0 158 71.629 158 160 0 72.66-47.824 134.012-113.346 153.52A20.12 20.12 0 0 1 283.5 386v-39.82c.031-18.309-7.129-23.141-12.355-31.219 82.568-12.48 85.164-89.359 56.33-123.941a2.668 2.668 0 0 1-.663-2.07c4.424-13.539 3.854-43.359-6.268-42.891-13.867.652-24.927 8.563-37.8 16.313a3.357 3.357 0 0 1-2.893.5 141.519 141.519 0 0 0-35.851-5.16 141.518 141.518 0 0 0-35.855 5.16 3.357 3.357 0 0 1-2.893-.5c-12.868-7.75-23.928-15.66-37.8-16.312-10.122-.469-10.693 29.352-6.268 42.891a2.668 2.668 0 0 1-.663 2.07c-28.834 34.582-26.238 111.461 56.33 123.941-5.227 8.078-12.386 12.91-12.355 31.219V386a20.12 20.12 0 0 1-5.154 13.52C133.825 380.012 86 318.661 86 246c0-88.371 70.734-160 158-160zm0 0" fill="currentColor"></path>
  </symbol>
  <symbol xmlns="http://www.w3.org/2000/svg" viewBox="0 0 492 492" id="instagram">
    <path d="M492 40v412a40 40 0 0 1-40 40H40a40 40 0 0 1-40-40V40A40 40 0 0 1 40 0h412a40 40 0 0 1 40 40zm0 0" fill="none"></path>
    <path d="M246.25 166.883c-44.093 0-82.307 35.274-82.307 82.307 0 44.093 35.274 82.307 82.307 82.307 44.093 0 82.307-35.274 82.307-82.307 0-44.09-35.274-82.307-82.307-82.307zm0 132.279a52.912 52.912 0 1 1 52.912-52.912 52.692 52.692 0 0 1-52.912 52.912zM349.134 161c0 11.758-8.819 17.637-17.637 17.637-11.758 0-17.637-8.819-17.637-17.637 0-11.758 8.819-17.637 17.637-17.637 11.758.003 17.637 8.822 17.637 17.637zm52.912 20.577c0-26.456-5.879-47.033-26.456-64.67-17.637-17.637-41.153-23.516-64.67-26.456-26.456-2.94-102.884-2.94-129.34 0-26.456 0-47.032 5.879-64.67 26.456-17.637 17.637-23.516 41.154-26.456 64.67-2.939 26.456-2.939 102.884 0 129.34 0 26.456 5.879 47.033 26.456 64.67 17.637 17.637 41.153 23.516 64.67 26.456 26.456 2.94 102.884 2.94 129.34 0 26.456 0 47.032-5.879 64.67-26.456 17.637-17.637 23.516-41.154 26.456-64.67 2.94-26.456 2.94-102.884 0-129.34zM369.71 340.315c-5.879 14.7-14.7 23.516-29.4 29.4-20.577 8.819-70.549 5.879-94.065 5.879s-73.488 2.94-94.065-5.879c-14.7-5.879-23.516-14.7-29.4-29.4-8.819-20.577-5.879-70.549-5.879-94.065s-2.94-73.488 5.879-94.065c5.879-14.7 14.7-23.516 29.4-29.4 20.577-8.819 70.549-5.879 94.065-5.879s73.488-2.94 94.065 5.879c14.7 5.879 23.516 14.7 29.4 29.4 8.819 20.577 5.879 70.549 5.879 94.065s2.94 73.488-5.879 94.065z" fill-rule="evenodd" fill="currentColor"></path>
  </symbol>
  <symbol xmlns="http://www.w3.org/2000/svg" viewBox="0 0 492 492" id="superellipse-facebook">
    <path d="M491.673 246.65c0 39.1 1.307 93.838-5.227 131.634-14.375 84.715-64.032 108.175-142.438 112.085-31.363 2.607-69.259 1.3-100.622 1.3-39.2 0-95.394 1.3-133.291-6.517C27.769 470.821 5.55 419.992 1.633 343.097-.981 311.817.326 274.021.326 242.742c0-39.1-1.307-95.142 5.227-132.938C19.928 27.695 70.892 5.539 147.992 1.629 179.35-.977 217.25.326 248.614.326c39.2 0 95.394-1.3 133.291 5.213C464.231 19.875 486.45 70.705 490.367 147.6c2.614 29.976 1.307 66.469 1.307 97.748z" fill="#4267b2" fill-rule="evenodd"></path>
    <path d="M492 40v412a40 40 0 0 1-40 40H40a40 40 0 0 1-40-40V40A40 40 0 0 1 40 0h412a40 40 0 0 1 40 40zm0 0" fill="none"></path>
    <path d="M406 126v240a40 40 0 0 1-40 40h-80V306h50l10-60h-60v-30a10 10 0 0 1 10-10h50v-60h-60a60 60 0 0 0-60 60v40h-40v60h40v100H126a40 40 0 0 1-40-40V126a40 40 0 0 1 40-40h240a40 40 0 0 1 40 40zm0 0" fill="#fff"></path>
  </symbol>
  <symbol xmlns="http://www.w3.org/2000/svg" viewBox="0 0 492 496" id="superellipse-github">
    <path d="M491.673 246.65c0 39.1 1.307 93.838-5.227 131.634-14.375 84.715-64.032 108.175-142.438 112.085-31.363 2.607-69.259 1.3-100.622 1.3-39.2 0-95.394 1.3-133.291-6.517C27.769 470.821 5.55 419.992 1.633 343.097-.981 311.817.326 274.021.326 242.742c0-39.1-1.307-95.142 5.227-132.938C19.928 27.695 70.892 5.539 147.992 1.629 179.35-.977 217.25.326 248.614.326c39.2 0 95.394-1.3 133.291 5.213C464.231 19.875 486.45 70.705 490.367 147.6c2.614 29.976 1.307 66.469 1.307 97.748z" fill="#222" fill-rule="evenodd"></path>
    <path d="M452 4H40A40 40 0 0 0 0 44v412a40 40 0 0 0 40 40h412a40 40 0 0 0 40-40V44a40 40 0 0 0-40-40zm0 0" fill="none"></path>
    <path d="M246 93c87.267 0 158 71.629 158 160 0 72.66-47.824 134.012-113.346 153.52A20.12 20.12 0 0 1 285.5 393v-39.82c.031-18.309-7.129-23.141-12.355-31.219 82.568-12.48 85.164-89.359 56.33-123.941a2.668 2.668 0 0 1-.663-2.07c4.424-13.539 3.854-43.359-6.268-42.891-13.867.652-24.927 8.563-37.8 16.313a3.357 3.357 0 0 1-2.893.5 141.519 141.519 0 0 0-35.851-5.16 141.518 141.518 0 0 0-35.855 5.16 3.357 3.357 0 0 1-2.893-.5c-12.868-7.75-23.928-15.66-37.8-16.312-10.122-.469-10.693 29.352-6.268 42.891a2.668 2.668 0 0 1-.663 2.07c-28.834 34.582-26.238 111.461 56.33 123.941-5.227 8.078-12.386 12.91-12.355 31.219V393a20.12 20.12 0 0 1-5.154 13.52C135.825 387.012 88 325.661 88 253c0-88.371 70.734-160 158-160zm0 0" fill="#fff"></path>
  </symbol>
  <symbol xmlns="http://www.w3.org/2000/svg" viewBox="0 0 492 492" id="superellipse-instagram">
    <path d="M491.673 246.65c0 39.1 1.307 93.838-5.227 131.634-14.375 84.715-64.032 108.175-142.438 112.085-31.363 2.607-69.259 1.3-100.622 1.3-39.2 0-95.394 1.3-133.291-6.517C27.769 470.821 5.55 419.992 1.633 343.097-.981 311.817.326 274.021.326 242.742c0-39.1-1.307-95.142 5.227-132.938C19.928 27.695 70.892 5.539 147.992 1.629 179.35-.977 217.25.326 248.614.326c39.2 0 95.394-1.3 133.291 5.213C464.231 19.875 486.45 70.705 490.367 147.6c2.614 29.976 1.307 66.469 1.307 97.748z" fill="#c13584" fill-rule="evenodd"></path>
    <path d="M245.25 166.883c-44.093 0-82.307 35.274-82.307 82.307 0 44.093 35.274 82.307 82.307 82.307 44.093 0 82.307-35.274 82.307-82.307 0-44.09-35.274-82.307-82.307-82.307zm0 132.279a52.912 52.912 0 1 1 52.912-52.912 52.692 52.692 0 0 1-52.912 52.912zM348.134 161c0 11.758-8.819 17.637-17.637 17.637-11.758 0-17.637-8.819-17.637-17.637 0-11.758 8.819-17.637 17.637-17.637 11.758.003 17.637 8.822 17.637 17.637zm52.912 20.577c0-26.456-5.879-47.033-26.456-64.67-17.637-17.637-41.153-23.516-64.67-26.456-26.456-2.94-102.884-2.94-129.34 0-26.456 0-47.032 5.879-64.67 26.456-17.637 17.637-23.516 41.154-26.456 64.67-2.939 26.456-2.939 102.884 0 129.34 0 26.456 5.879 47.033 26.456 64.67 17.637 17.637 41.153 23.516 64.67 26.456 26.456 2.94 102.884 2.94 129.34 0 26.456 0 47.032-5.879 64.67-26.456 17.637-17.637 23.516-41.154 26.456-64.67 2.94-26.456 2.94-102.884 0-129.34zM368.71 340.315c-5.879 14.7-14.7 23.516-29.4 29.4-20.577 8.819-70.549 5.879-94.065 5.879s-73.488 2.94-94.065-5.879c-14.7-5.879-23.516-14.7-29.4-29.4-8.819-20.577-5.879-70.549-5.879-94.065s-2.94-73.488 5.879-94.065c5.879-14.7 14.7-23.516 29.4-29.4 20.577-8.819 70.549-5.879 94.065-5.879s73.488-2.94 94.065 5.879c14.7 5.879 23.516 14.7 29.4 29.4 8.819 20.577 5.879 70.549 5.879 94.065s2.94 73.488-5.879 94.065z" fill="#fff" fill-rule="evenodd"></path>
  </symbol>
  <symbol xmlns="http://www.w3.org/2000/svg" viewBox="0 0 492 492" id="superellipse-telegram">
    <path d="M491.673 246.65c0 39.1 1.307 93.838-5.227 131.634-14.375 84.715-64.032 108.175-142.438 112.085-31.363 2.607-69.259 1.3-100.622 1.3-39.2 0-95.394 1.3-133.291-6.517C27.769 470.821 5.55 419.992 1.633 343.097-.981 311.817.326 274.021.326 242.742c0-39.1-1.307-95.142 5.227-132.938C19.928 27.695 70.892 5.539 147.992 1.629 179.35-.977 217.25.326 248.614.326c39.2 0 95.394-1.3 133.291 5.213C464.231 19.875 486.45 70.705 490.367 147.6c2.614 29.976 1.307 66.469 1.307 97.748z" fill="#08c" fill-rule="evenodd"></path>
    <path d="M394 119L160.57 257.922 99 234zM219 278.621L199 354l50.859-50.859L339 374l55-255zm0 0" fill="#fff"></path>
  </symbol>
  <symbol xmlns="http://www.w3.org/2000/svg" viewBox="0 0 492 492" id="superellipse-vk">
    <path d="M491.673 246.65c0 39.1 1.307 93.838-5.227 131.634-14.375 84.715-64.032 108.175-142.438 112.085-31.363 2.607-69.259 1.3-100.622 1.3-39.2 0-95.394 1.3-133.291-6.517C27.769 470.821 5.55 419.992 1.633 343.097-.981 311.817.326 274.021.326 242.742c0-39.1-1.307-95.142 5.227-132.938C19.928 27.695 70.892 5.539 147.992 1.629 179.35-.977 217.25.326 248.614.326c39.2 0 95.394-1.3 133.291 5.213C464.231 19.875 486.45 70.705 490.367 147.6c2.614 29.976 1.307 66.469 1.307 97.748z" fill="#45668e" fill-rule="evenodd"></path>
    <path d="M398.476 163.84c2.189-7.4 0-12.84-10.532-12.84h-34.852c-8.876 0-12.958 4.674-15.148 9.882 0 0-17.751 43.254-42.84 71.3-8.106 8.106-11.834 10.71-16.272 10.71-2.189 0-5.562-2.6-5.562-10V163.84c0-8.876-2.485-12.84-9.822-12.84h-54.793c-5.562 0-8.876 4.142-8.876 7.988 0 8.4 12.544 10.355 13.846 34.023v51.36c0 11.242-2.012 13.313-6.45 13.313-11.834 0-40.591-43.431-57.632-93.135C146.112 154.905 142.739 151 133.8 151H98.953C89.012 151 87 155.675 87 160.882c0 9.231 11.834 55.088 55.088 115.679 28.816 41.36 69.407 63.786 106.33 63.786 22.189 0 24.911-4.97 24.911-13.55 0-39.526-2.012-43.254 9.112-43.254 5.148 0 14.024 2.6 34.733 22.544 23.668 23.668 27.574 34.26 40.828 34.26h34.852c9.941 0 14.97-4.97 12.071-14.793-6.627-20.651-51.42-63.135-53.431-65.976-5.148-6.627-3.669-9.586 0-15.5.059-.059 42.6-59.94 46.982-80.236z" fill="#fff"></path>
  </symbol>
  <symbol xmlns="http://www.w3.org/2000/svg" viewBox="0 0 492 492" id="superellipse-whatsapp">
    <path d="M491.673 246.65c0 39.1 1.307 93.838-5.227 131.634-14.375 84.715-64.032 108.175-142.438 112.085-31.363 2.607-69.259 1.3-100.622 1.3-39.2 0-95.394 1.3-133.291-6.517C27.769 470.821 5.55 419.992 1.633 343.097-.981 311.817.326 274.021.326 242.742c0-39.1-1.307-95.142 5.227-132.938C19.928 27.695 70.892 5.539 147.992 1.629 179.35-.977 217.25.326 248.614.326c39.2 0 95.394-1.3 133.291 5.213C464.231 19.875 486.45 70.705 490.367 147.6c2.614 29.976 1.307 66.469 1.307 97.748z" fill="#1f962d" fill-rule="evenodd"></path>
    <path d="M247.5 85.991c89.72 0 158.5 68.785 158.5 158.5a160.824 160.824 0 0 1-161.5 161.5c-29.906 0-59.813-8.972-86.729-23.925L86 405.991l23.925-71.776C91.981 307.3 86 277.393 86 247.486a160.824 160.824 0 0 1 161.5-161.5zm95.7 206.355c2.991 2.991 2.991 5.981 2.991 8.972s0 5.981-2.991 8.972l-8.972 8.972c-17.944 17.944-83.738 11.963-128.6-32.9s-50.841-110.654-32.9-128.6l8.972-8.972c2.991-2.991 5.981-2.991 8.972-2.991s5.981 0 8.972 2.991l32.9 32.9c2.991 2.991 2.991 5.981 2.991 8.972s0 5.981-2.991 8.972l-8.972 8.972a21.682 21.682 0 0 0 0 29.907l32.9 32.9a21.682 21.682 0 0 0 29.907 0l8.972-8.972c2.991-2.991 5.981-2.991 8.972-2.991s5.981 0 8.972 2.991l32.9 32.9z" fill="#fff" fill-rule="evenodd"></path>
  </symbol>
  <symbol xmlns="http://www.w3.org/2000/svg" viewBox="0 0 492 492" id="telegram">
    <path d="M492 40v412a40 40 0 0 1-40 40H40a40 40 0 0 1-40-40V40A40 40 0 0 1 40 0h412a40 40 0 0 1 40 40zm0 0" fill="none"></path>
    <path d="M393 119L159.57 257.922 98 234zM218 278.621L198 354l50.859-50.859L338 374l55-255zm0 0" fill="currentColor"></path>
  </symbol>
  <symbol xmlns="http://www.w3.org/2000/svg" viewBox="0 0 492 492" id="vk">
    <path d="M492 40v412a40 40 0 0 1-40 40H40a40 40 0 0 1-40-40V40A40 40 0 0 1 40 0h412a40 40 0 0 1 40 40zm0 0" fill="none"></path>
    <path d="M398.476 163.84c2.189-7.4 0-12.84-10.532-12.84h-34.852c-8.876 0-12.958 4.674-15.148 9.882 0 0-17.751 43.254-42.84 71.3-8.106 8.106-11.834 10.71-16.272 10.71-2.189 0-5.562-2.6-5.562-10V163.84c0-8.876-2.485-12.84-9.822-12.84h-54.793c-5.562 0-8.876 4.142-8.876 7.988 0 8.4 12.544 10.355 13.846 34.023v51.36c0 11.242-2.012 13.313-6.45 13.313-11.834 0-40.591-43.431-57.632-93.135C146.112 154.905 142.739 151 133.8 151H98.953C89.012 151 87 155.675 87 160.882c0 9.231 11.834 55.088 55.088 115.679 28.816 41.36 69.407 63.786 106.33 63.786 22.189 0 24.911-4.97 24.911-13.55 0-39.526-2.012-43.254 9.112-43.254 5.148 0 14.024 2.6 34.733 22.544 23.668 23.668 27.574 34.26 40.828 34.26h34.852c9.941 0 14.97-4.97 12.071-14.793-6.627-20.651-51.42-63.135-53.431-65.976-5.148-6.627-3.669-9.586 0-15.5.059-.059 42.6-59.94 46.982-80.236z" fill="currentColor"></path>
  </symbol>
  <symbol xmlns="http://www.w3.org/2000/svg" viewBox="0 0 492 492" id="whatsapp">
    <path d="M492 40v412a40 40 0 0 1-40 40H40a40 40 0 0 1-40-40V40A40 40 0 0 1 40 0h412a40 40 0 0 1 40 40zm0 0" fill="none"></path>
    <path d="M247.5 87.991c89.72 0 158.5 68.785 158.5 158.5a160.824 160.824 0 0 1-161.5 161.5c-29.906 0-59.813-8.972-86.729-23.925L86 407.991l23.925-71.776C91.981 309.3 86 279.393 86 249.486a160.824 160.824 0 0 1 161.5-161.5zm95.7 206.355c2.991 2.991 2.991 5.981 2.991 8.972s0 5.981-2.991 8.972l-8.972 8.972c-17.944 17.944-83.738 11.963-128.6-32.9s-50.841-110.654-32.9-128.6l8.972-8.972c2.991-2.991 5.981-2.991 8.972-2.991s5.981 0 8.972 2.991l32.9 32.9c2.991 2.991 2.991 5.981 2.991 8.972s0 5.981-2.991 8.972l-8.972 8.972a21.682 21.682 0 0 0 0 29.907l32.9 32.9a21.682 21.682 0 0 0 29.907 0l8.972-8.972c2.991-2.991 5.981-2.991 8.972-2.991s5.981 0 8.972 2.991l32.9 32.9z" fill-rule="evenodd" fill="currentColor"></path>
  </symbol>
</svg>

<svg>
  <use xlink:href="#facebook"></use>
</svg><svg>
  <use xlink:href="#github"></use>
</svg><svg>
  <use xlink:href="#instagram"></use>
</svg><svg>
  <use xlink:href="#superellipse-facebook"></use>
</svg><svg>
  <use xlink:href="#superellipse-github"></use>
</svg><svg>
  <use xlink:href="#superellipse-instagram"></use>
</svg><svg>
  <use xlink:href="#superellipse-telegram"></use>
</svg><svg>
  <use xlink:href="#superellipse-vk"></use>
</svg><svg>
  <use xlink:href="#superellipse-whatsapp"></use>
</svg><svg>
  <use xlink:href="#telegram"></use>
</svg><svg>
  <use xlink:href="#vk"></use>
</svg><svg>
  <use xlink:href="#whatsapp"></use>
</svg>
